/* XPM */
static char *_163a33a62214189f5f45d0b95f0f34b2Xw9zLWpNOEfxP3Y[] = {
/* columns rows colors chars-per-pixel */
"16 16 117 2 ",
"   c #BC701B",
".  c #9F723F",
"X  c #A86A28",
"o  c #BE7520",
"O  c #C17A22",
"+  c #A37642",
"@  c #CA882B",
"#  c #CD8F33",
"$  c #D59C39",
"%  c #D49C3E",
"&  c #D8A13F",
"*  c #D8A23E",
"=  c #A98452",
"-  c #AB8853",
";  c #AE8D5A",
":  c #BF9456",
">  c #B1915B",
",  c #A28969",
"<  c #A48A69",
"1  c #B7996E",
"2  c #AF9D7D",
"3  c #BA9E74",
"4  c #B19F7D",
"5  c #DAA644",
"6  c #DDAB43",
"7  c #D9A54F",
"8  c #DEAD48",
"9  c #D8A450",
"0  c #DAA752",
"q  c #DCAB54",
"w  c #DEAF5F",
"e  c #E1B046",
"r  c #E2B653",
"t  c #E3B755",
"y  c #E4B957",
"u  c #E1B75D",
"i  c #E4BA58",
"p  c #C3AE74",
"a  c #C1AD76",
"s  c #E6BD61",
"d  c #E4BB67",
"f  c #E6C05F",
"g  c #E8C15F",
"h  c #EAC45C",
"j  c #DAC272",
"k  c #D9C376",
"l  c #E8C260",
"z  c #EAC464",
"x  c #EAC968",
"c  c #ECCB68",
"v  c #EDCB68",
"b  c #EDCD6B",
"n  c #EDCD6E",
"m  c #E8C577",
"M  c #EBC973",
"N  c #EDCD70",
"B  c #E8C57B",
"V  c #EBCB7A",
"C  c #F0D371",
"Z  c #F0D272",
"A  c #F1D472",
"S  c #F1D776",
"D  c #F4D875",
"F  c #F3D878",
"G  c #F4DA79",
"H  c #F5DB7B",
"J  c #F7E17E",
"K  c #BAAB94",
"L  c #BCAF99",
"P  c #B3ADA5",
"I  c #B4ADA5",
"U  c #C1AD87",
"Y  c #C1AF8B",
"T  c #C5B692",
"R  c #C6B896",
"E  c #CABF94",
"W  c #C1BAA7",
"Q  c #C1BCAA",
"!  c #EDCF80",
"~  c #EFD384",
"^  c #F4DC86",
"/  c #F0D693",
"(  c #F5DF91",
")  c #F4DE9F",
"_  c #F7E284",
"`  c #F8E284",
"'  c #F8E388",
"]  c #F9E696",
"[  c #FBEB95",
"{  c #F5E19A",
"}  c #F7E598",
"|  c #F8E498",
" . c #FCED99",
".. c #C6C3BD",
"X. c #F7E6A5",
"o. c #FCEEA2",
"O. c #F8E8A9",
"+. c #F9ECAE",
"@. c #FDF0A4",
"#. c #FCF0AF",
"$. c #FAEEB7",
"%. c #FCF1B1",
"&. c #FBF0B8",
"*. c #FBF1BB",
"=. c #FCF2BB",
"-. c #C6C4C1",
";. c #D3D2CF",
":. c #D7D4D0",
">. c #E1E0DF",
",. c #E2E2E1",
"<. c #E4E4E3",
"1. c #E7E6E6",
"2. c #EBEBEA",
"3. c #EEEEED",
"4. c #F8F8F8",
"5. c #F9F9F9",
"6. c white",
/* pixels */
"6.6.6.6.6.6.6.6.6.6.6.6.6.6.6.6.",
"6.6.6.6.6.:.L Y R Q :.6.6.6.6.6.",
"6.6.6.3.3 9 d ~ { X.| E 1.6.6.6.",
"6.6.2.: q V { +.&.%.| D k ,.6.6.",
"6.6.1 9 ! { O.=.%.@. .' h a 5.6.",
"6.:.7 m { O.$.%.@.M u ` z e ..6.",
"6.K w { O.&.#.o.[ s N H A $ 2 6.",
"6.U B +.=.+.] [ _ n n A b % ; 5.",
"6.T / =.%.} ~ _ _ H b b l # = 5.",
"6.W ) &.@.^ s n S J x g i O , 6.",
"6.;.( (  .N r F C S f t %   I 6.",
"6.6.E C _ _ F C c i r 5 o . 2.6.",
"6.6.<.j g v A v f y & O X -.6.6.",
"6.6.6.>.p r 6 8 & @ o + -.6.6.6.",
"6.6.6.6.4.Q 4 > - < P 2.6.6.6.6.",
"6.6.6.6.6.6.6.5.5.6.6.6.6.6.6.6."
};
