/* XPM */
static char *_2f70b3214fd49f2d6f59bfd3e3489c32fRovUuqMRmGn3fG[] = {
/* columns rows colors chars-per-pixel */
"32 32 166 2 ",
"   c #B46314",
".  c #B76916",
"X  c #BA6B17",
"o  c #B26A1B",
"O  c #BA6C19",
"+  c #BD741E",
"@  c #9E6F37",
"#  c #B67425",
"$  c #B87221",
"%  c #A3753C",
"&  c #C27C23",
"*  c #9A7547",
"=  c #9F7E4F",
"-  c #91775A",
";  c #907C66",
":  c #907D68",
">  c #BC8030",
",  c #C58327",
"<  c #C58229",
"1  c #C9872B",
"2  c #CC8B2C",
"3  c #C88E3F",
"4  c #CF9237",
"5  c #CD913C",
"6  c #D19533",
"7  c #D3973D",
"8  c #D49B3B",
"9  c #D6A03E",
"0  c #DAA239",
"q  c #DFAA3F",
"w  c #9F9077",
"e  c #9D917F",
"r  c #AE986D",
"t  c #B8986E",
"y  c #A1947E",
"u  c #BB9D74",
"i  c #B3A071",
"p  c #BBA571",
"a  c #CA9344",
"s  c #C99C47",
"d  c #D29742",
"f  c #D69D43",
"g  c #CC9B54",
"h  c #D7A241",
"j  c #D9A445",
"k  c #DDAB43",
"l  c #D5A34C",
"z  c #D9A54D",
"x  c #DEAE4C",
"c  c #D7A356",
"v  c #D9A653",
"b  c #DDAC55",
"n  c #DCAD5B",
"m  c #DFB150",
"M  c #DEB15D",
"N  c #E1B147",
"B  c #E2B44E",
"V  c #E5B84C",
"C  c #E9BD4D",
"Z  c #E2B553",
"A  c #E3B955",
"S  c #E1B35E",
"D  c #E5BC5C",
"F  c #CAA465",
"G  c #DFBD61",
"H  c #C3AC70",
"J  c #E1B764",
"K  c #E5BD63",
"L  c #E4BC6B",
"P  c #E2BA70",
"I  c #EBC357",
"U  c #EFC956",
"Y  c #E7C05D",
"T  c #E8C15D",
"R  c #E7C364",
"E  c #E9C563",
"W  c #ECCA65",
"Q  c #EAC66B",
"!  c #EDCD6B",
"~  c #EFD16E",
"^  c #F4D361",
"/  c #F6D865",
"(  c #F0D16E",
")  c #E7C373",
"_  c #E9C776",
"`  c #ECCD73",
"'  c #EBCB7A",
"]  c #EFD273",
"[  c #EDD47D",
"{  c #F1D473",
"}  c #F3D877",
"|  c #F8DE74",
" . c #F2D67A",
".. c #F4DB7B",
"X. c #FAE073",
"o. c #F8E27E",
"O. c #9B9285",
"+. c #9B938C",
"@. c #9D9791",
"#. c #A69E8D",
"$. c #BCA789",
"%. c #A6A19A",
"&. c #BBB59D",
"*. c #BAB5A5",
"=. c #B5B2AC",
"-. c #B8B5AA",
";. c #BFBBAC",
":. c #BAB7B0",
">. c #BBBBBA",
",. c #CBBD93",
"<. c #C8BE9A",
"1. c #C3B9A6",
"2. c #C4BDB2",
"3. c #EACA82",
"4. c #ECD284",
"5. c #EFD38B",
"6. c #F1D685",
"7. c #F4DC83",
"8. c #F0D58F",
"9. c #F2DA8B",
"0. c #E6D29B",
"q. c #F3DC91",
"w. c #F0D79A",
"e. c #F2DC9B",
"r. c #F7E183",
"t. c #F8E384",
"y. c #FBE984",
"u. c #F7E389",
"i. c #F9E68B",
"p. c #FBE98D",
"a. c #F6E294",
"s. c #FBEB94",
"d. c #F6E39B",
"f. c #FCED9B",
"g. c #FDF09F",
"h. c #C6C0B3",
"j. c #C5C3BE",
"k. c #CAC3BA",
"l. c #E0D1A1",
"z. c #F2DCA4",
"x. c #F7E7A4",
"c. c #F8E7A4",
"v. c #F9E9A5",
"b. c #F7E8AE",
"n. c #F9EBAC",
"m. c #FDF1A4",
"M. c #FDF1AA",
"N. c #FAEFB5",
"B. c #FCF1B2",
"V. c #FCF2BC",
"C. c #C6C6C6",
"Z. c #CCC9C4",
"A. c #CBCBCB",
"S. c #D0CFCA",
"D. c #D4D3D2",
"F. c #D8D5D1",
"G. c #D9D8D5",
"H. c #DADAD9",
"J. c #E4E3E2",
"K. c #E8E7E6",
"L. c #EDEDED",
"P. c #F4F4F4",
"I. c #F5F5F5",
"U. c gray97",
"Y. c #FCFCFC",
"T. c white",
/* pixels */
"T.T.T.T.T.T.T.T.T.T.T.T.T.T.T.T.T.T.T.T.T.T.T.T.T.T.T.T.T.T.T.T.",
"T.T.T.T.T.T.T.T.T.T.T.T.T.T.T.T.T.T.T.T.T.T.T.T.T.T.T.T.T.T.T.T.",
"T.T.T.T.T.T.T.T.T.T.T.T.T.K.Z.k.k.S.J.U.T.T.T.T.T.T.T.T.T.T.T.T.",
"T.T.T.T.T.T.T.T.T.T.G.$.F M J _ ' 6.w.l.h.F.U.T.T.T.T.T.T.T.T.T.",
"T.T.T.T.T.T.T.T.J.u f z v K ) 5.q.e.d.x.x.d.<.G.T.T.T.T.T.T.T.T.",
"T.T.T.T.T.T.T.k.a z z J L ' 9.q.c.v.b.v.d.i.t.4.;.P.T.T.T.T.T.T.",
"T.T.T.T.T.T.1.3 f n S _ 9.d.x.v.B.V.V.n.a.7...X.] *.P.T.T.T.T.T.",
"T.T.T.T.T.2.5 d b S 6.q.d.v.N.N.V.V.B.M.M.s. .! / ^ *.U.T.T.T.T.",
"T.T.T.T.J.3 d v S 9.9.d.x.v.N.V.V.M.M.m.g.g.s.~ T ^ G C.T.T.T.T.",
"T.T.T.T.t d v n 6.q.d.c.b.N.V.V.B.M.m.g.s.s.p.i.T D U p K.T.T.T.",
"T.T.T.F.d z v 6.q.d.e.v.b.V.V.M.M.M.m.M 7 R i.r.} z V N -.T.T.T.",
"T.T.T.$.l S P q.d.c.v.N.V.N.B.M.m.g.7.z j u.r.r.} A k q r L.T.T.",
"T.T.T.g b c 9.d.c.b.N.V.V.n.M.m.g.s.Q m S t.o...} ( 8 0 s D.T.T.",
"T.T.H.v J P d.c.n.N.V.N.B.M.v.f.s.u.Q D D r...} { { 8 6 6 =.T.T.",
"T.T.k.M L 3.c.N.B.V.V.v.v.f.f.s.s...` E R } } { { ! j 6 1 #.P.T.",
"T.T.2.L _ 3.b.N.V.V.B.d.a.9.s.i.i.u.! ` R } { ( ! W j 6 2 e U.T.",
"T.T.2._ 4.e.B.V.V.B.M.q.7.9.t.u.p.t.{ } E  .~ ! E E 4 2 2 w P.T.",
"T.T.Z.' 8.z.V.V.B.M.M.7.` ] [ r.t.} ..t.Q ! W W R Y 7 , , e P.T.",
"T.T.G.8.e.z.V.B.M.M.m.` K Q ]  . .o.o.y.! W W R T Y 2 + + %.U.T.",
"T.T.U.0.c.w.B.M.m.g.f.Q b R ` ] ] ] ~ y.W E T Y D m + + # >.T.T.",
"T.T.T.1.d.q.q.v.g.s.s.D f ` ..} ] ~ ~ o.E T D A B 4 & O * G.T.T.",
"T.T.T.S.q.i._ f.s.s.i.A 4 ! } } ~ ~ W ~ D D Z B x & O O O.P.T.T.",
"T.T.T.U.,.i.} ' s.i.i...} } } ] ~ W E D m A B x < + . @ C.Y.T.T.",
"T.T.T.T.F.4.| E ! i.r...} } ~ ! W W R D A m m 1 #   o @.L.T.T.T.",
"T.T.T.T.T.;.~ ^ Y T ....} ] ~ W E R T A x x 1 & . . ; H.T.T.T.T.",
"T.T.T.T.T.P.&.W U Y A I ~ ~ W W T D D B 8 2 & . X - A.U.T.T.T.T.",
"T.T.T.T.T.T.P.*.T C V V B V V B N k 8 6 2 + O # ; A.U.T.T.T.T.T.",
"T.T.T.T.T.T.T.P.j.H Z k 0 9 h h 8 6 < O . + % +.F.T.T.T.T.T.T.T.",
"T.T.T.T.T.T.T.T.Y.K.-.r l 8 8 6 2 1 < > = O.C.L.T.T.T.T.T.T.T.T.",
"T.T.T.T.T.T.T.T.T.T.U.L.D.=.#.y w O.%.>.G.P.Y.T.T.T.T.T.T.T.T.T.",
"T.T.T.T.T.T.T.T.T.T.T.T.Y.Y.P.P.L.P.U.T.T.T.T.T.T.T.T.T.T.T.T.T.",
"T.T.T.T.T.T.T.T.T.T.T.T.T.T.T.T.T.T.T.T.T.T.T.T.T.T.T.T.T.T.T.T."
};
